<svg xmlns="http://www.w3.org/2000/svg" viewBox="0 0 520 560" role="img" aria-label="Carol, mentora do NoSeuTempo — mulher sorridente, cabelos cacheados, óculos, com a mão no queixo">
  <title>Carol — Mentora NoSeuTempo</title>
  <defs>
    <linearGradient id="bg" x1="0" y1="0" x2=".6" y2="1">
      <stop offset="0%" stop-color="#EAE0D2"/><stop offset="55%" stop-color="#E2D5C2"/><stop offset="100%" stop-color="#D8C8B0"/>
    </linearGradient>
    <radialGradient id="skin" cx="42%" cy="34%" r="64%">
      <stop offset="0%" stop-color="#D9A074"/><stop offset="72%" stop-color="#C88858"/><stop offset="100%" stop-color="#B57340"/>
    </radialGradient>
    <linearGradient id="sweat" x1="0" y1="0" x2="0" y2="1">
      <stop offset="0%" stop-color="#D8B98A"/><stop offset="100%" stop-color="#C29C68"/>
    </linearGradient>
    <radialGradient id="hair" cx="38%" cy="26%" r="56%">
      <stop offset="0%" stop-color="#3A2212"/><stop offset="100%" stop-color="#160A05"/>
    </radialGradient>
    <linearGradient id="desk" x1="0" y1="0" x2="0" y2="1">
      <stop offset="0%" stop-color="#C68C58"/><stop offset="100%" stop-color="#A8703F"/>
    </linearGradient>
  </defs>

  <rect width="520" height="560" fill="url(#bg)" rx="24"/>

  <!-- ambient blurred room -->
  <circle cx="430" cy="150" r="95" fill="#F2E4BC" opacity=".3"/>
  <rect x="28" y="150" width="120" height="10" fill="#9A7850" rx="2"/>
  <rect x="34" y="92" width="14" height="68" fill="#5A78C8" rx="2"/>
  <rect x="50" y="100" width="11" height="60" fill="#D04848" rx="2"/>
  <rect x="63" y="84" width="16" height="76" fill="#C8A428" rx="2"/>
  <rect x="81" y="96" width="12" height="64" fill="#38A870" rx="2"/>
  <rect x="95" y="88" width="15" height="72" fill="#7A48B8" rx="2"/>
  <rect x="112" y="98" width="12" height="62" fill="#D87030" rx="2"/>
  <rect x="126" y="90" width="13" height="70" fill="#4898C8" rx="2"/>
  <!-- plant -->
  <rect x="452" y="350" width="48" height="74" fill="#BE7448" rx="7"/>
  <ellipse cx="476" cy="350" rx="26" ry="7" fill="#A45C38"/>
  <ellipse cx="476" cy="306" rx="24" ry="44" fill="#3A8030" transform="rotate(-10 476 306)"/>
  <ellipse cx="492" cy="292" rx="19" ry="36" fill="#4A9040" transform="rotate(14 492 292)"/>
  <ellipse cx="460" cy="298" rx="18" ry="34" fill="#2A7025" transform="rotate(-22 460 298)"/>

  <!-- desk -->
  <rect x="0" y="436" width="520" height="124" fill="url(#desk)"/>
  <rect x="0" y="430" width="520" height="11" fill="#C88A56"/>
  <line x1="0" y1="468" x2="520" y2="466" stroke="#A06838" stroke-width="1" opacity=".25"/>

  <!-- ════════ BODY / SWEATER ════════ -->
  <path d="M150 560 C150 462 180 432 264 426 C348 432 384 462 384 560 Z" fill="url(#sweat)"/>
  <ellipse cx="170" cy="446" rx="64" ry="30" fill="#CCA876"/>
  <ellipse cx="360" cy="446" rx="64" ry="30" fill="#CCA876"/>
  <path d="M236 428 Q264 446 292 428 Q278 456 264 458 Q250 456 236 428 Z" fill="#BC966A"/>

  <!-- ════════ RIGHT ARM up to chin (hand-on-chin pose) ════════ -->
  <!-- forearm rising from desk to face -->
  <path d="M196 540 Q188 470 214 430 Q236 414 252 430 Q244 470 240 520 Q232 552 210 552 Z" fill="url(#sweat)"/>
  <!-- wrist + hand resting under chin -->
  <path d="M232 372 Q226 352 240 342 Q258 336 270 348 Q276 366 268 388 Q256 404 240 402 Q230 392 232 372 Z" fill="url(#skin)"/>
  <!-- fingers curving along cheek -->
  <path d="M244 348 Q252 330 262 320" stroke="#C07850" stroke-width="7" fill="none" stroke-linecap="round" opacity=".8"/>
  <path d="M254 352 Q263 336 272 326" stroke="#CC8C5E" stroke-width="7" fill="none" stroke-linecap="round"/>
  <path d="M262 358 Q272 344 280 334" stroke="#CC8C5E" stroke-width="7" fill="none" stroke-linecap="round"/>

  <!-- neck -->
  <path d="M246 338 Q260 360 270 362 L276 392 Q264 404 252 400 Q244 384 244 360 Z" fill="url(#skin)"/>

  <!-- ════════ HEAD ════════ -->
  <ellipse cx="270" cy="278" rx="88" ry="96" fill="url(#skin)"/>
  <ellipse cx="184" cy="282" rx="11" ry="16" fill="#C88058"/>
  <ellipse cx="356" cy="282" rx="11" ry="16" fill="#C88058"/>

  <!-- ════════ HAIR — curly volume ════════ -->
  <ellipse cx="270" cy="214" rx="104" ry="96" fill="url(#hair)"/>
  <ellipse cx="172" cy="246" rx="48" ry="86" fill="#160C06"/>
  <ellipse cx="368" cy="246" rx="48" ry="86" fill="#160C06"/>
  <ellipse cx="168" cy="306" rx="40" ry="58" fill="#1A1008"/>
  <ellipse cx="372" cy="306" rx="40" ry="58" fill="#1A1008"/>
  <circle cx="232" cy="170" r="36" fill="#1A1008"/>
  <circle cx="270" cy="156" r="42" fill="#1A1008"/>
  <circle cx="308" cy="170" r="36" fill="#1A1008"/>
  <circle cx="248" cy="146" r="26" fill="#180E06"/>
  <circle cx="294" cy="144" r="28" fill="#180E06"/>
  <!-- curl texture -->
  <circle cx="158" cy="212" r="18" fill="#2A1608" opacity=".7"/>
  <circle cx="150" cy="252" r="15" fill="#2A1608" opacity=".6"/>
  <circle cx="160" cy="300" r="13" fill="#2A1608" opacity=".55"/>
  <circle cx="382" cy="212" r="18" fill="#2A1608" opacity=".7"/>
  <circle cx="390" cy="252" r="15" fill="#2A1608" opacity=".6"/>
  <circle cx="380" cy="300" r="13" fill="#2A1608" opacity=".55"/>
  <ellipse cx="255" cy="182" rx="30" ry="12" fill="#3E2618" opacity=".45" transform="rotate(-12 255 182)"/>

  <!-- ════════ FACE ════════ -->
  <path d="M222 244 Q240 236 260 243" stroke="#1C0C06" stroke-width="5" fill="none" stroke-linecap="round"/>
  <path d="M280 243 Q300 236 318 244" stroke="#1C0C06" stroke-width="5" fill="none" stroke-linecap="round"/>
  <!-- eyes -->
  <ellipse cx="242" cy="266" rx="21" ry="16" fill="#FEFEFE"/>
  <ellipse cx="298" cy="266" rx="21" ry="16" fill="#FEFEFE"/>
  <circle cx="243" cy="268" r="12" fill="#3C2818"/>
  <circle cx="299" cy="268" r="12" fill="#3C2818"/>
  <circle cx="243" cy="268" r="7.5" fill="#0E0806"/>
  <circle cx="299" cy="268" r="7.5" fill="#0E0806"/>
  <circle cx="248" cy="263" r="4" fill="#fff" opacity=".92"/>
  <circle cx="304" cy="263" r="4" fill="#fff" opacity=".92"/>
  <!-- glasses -->
  <circle cx="242" cy="266" r="26" fill="none" stroke="#2C180C" stroke-width="3.5"/>
  <circle cx="298" cy="266" r="26" fill="none" stroke="#2C180C" stroke-width="3.5"/>
  <path d="M268 265 q2 -2 4 0" stroke="#2C180C" stroke-width="3.5" fill="none"/>
  <line x1="216" y1="258" x2="190" y2="250" stroke="#2C180C" stroke-width="3.5" stroke-linecap="round"/>
  <line x1="324" y1="258" x2="350" y2="250" stroke="#2C180C" stroke-width="3.5" stroke-linecap="round"/>
  <!-- nose -->
  <path d="M260 302 Q270 310 280 302" stroke="#B06040" stroke-width="2.5" fill="none" stroke-linecap="round" opacity=".45"/>
  <!-- smile -->
  <path d="M248 322 Q270 344 292 322" stroke="#A04838" stroke-width="3" fill="none" stroke-linecap="round"/>
  <path d="M252 324 Q270 332 288 324 Q278 340 270 340 Q262 340 252 324 Z" fill="#fff" opacity=".55"/>
  <!-- blush -->
  <ellipse cx="212" cy="300" rx="24" ry="13" fill="#E08060" opacity=".16"/>
  <ellipse cx="328" cy="300" rx="24" ry="13" fill="#E08060" opacity=".16"/>

  <!-- ════════ LEFT ARM on desk ════════ -->
  <path d="M360 446 Q372 500 360 552 L300 552 Q288 510 300 458 Q330 446 360 446 Z" fill="url(#sweat)"/>
  <ellipse cx="320" cy="540" rx="52" ry="18" fill="url(#skin)"/>

  <!-- ════════ DESK ITEMS ════════ -->
  <!-- notebook -->
  <rect x="120" y="486" width="120" height="70" fill="#F6F0EA" rx="6" transform="rotate(-4 180 520)"/>
  <line x1="138" y1="506" x2="226" y2="500" stroke="#E6DED4" stroke-width="1.5"/>
  <line x1="139" y1="518" x2="227" y2="512" stroke="#E6DED4" stroke-width="1.5"/>
  <line x1="140" y1="530" x2="210" y2="525" stroke="#E6DED4" stroke-width="1.5"/>
  <!-- mug -->
  <rect x="392" y="470" width="54" height="62" fill="#23314F" rx="8"/>
  <path d="M446 486 Q468 486 468 502 Q468 518 446 518" stroke="#23314F" stroke-width="6" fill="none"/>
  <circle cx="419" cy="498" r="13" fill="none" stroke="#5FD0DF" stroke-width="2.5"/>
  <path d="M419 498 L419 491 M419 498 L424 501" stroke="#F0902F" stroke-width="2.5" stroke-linecap="round"/>
  <ellipse cx="419" cy="532" rx="27" ry="5" fill="#7A5430" opacity=".25"/>
</svg>
